PathFileType	4	(X/Y/Z)	s03c0302.trc
DataRate	CameraRate	NumFrames	NumMarkers	Units	OrigDataRate	OrigDataStartFrame	OrigNumFrames
200	200	5	52	mm	200	1250	2000
Frame#	Time	racr			lacr			c7			jug			rlel			rdr			llel			ldr			s2			lic			ric			lasi			rasi			rpsi			lpsi			rgt			lgt			rth1			rth2			rth3			rth4			rlfc			rmfc			rsh1			rsh2			rsh3			rsh4			rlmal			rmmal			rcal			rtoe			rmt5			rmt1			lth1			lth2			lth4			lth3			llfc			lmfc			lsh1			lsh2			lsh3			lsh4			llmal			lmmal			lcal			ltoe			lmt1			lmt5			SBIKE			LBIKE			RBIKE			
		X1	Y1	Z1	X2	Y2	Z2	X3	Y3	Z3	X4	Y4	Z4	X5	Y5	Z5	X6	Y6	Z6	X7	Y7	Z7	X8	Y8	Z8	X9	Y9	Z9	X10	Y10	Z10	X11	Y11	Z11	X12	Y12	Z12	X13	Y13	Z13	X14	Y14	Z14	X15	Y15	Z15	X16	Y16	Z16	X17	Y17	Z17	X18	Y18	Z18	X19	Y19	Z19	X20	Y20	Z20	X21	Y21	Z21	X22	Y22	Z22	X23	Y23	Z23	X24	Y24	Z24	X25	Y25	Z25	X26	Y26	Z26	X27	Y27	Z27	X28	Y28	Z28	X29	Y29	Z29	X30	Y30	Z30	X31	Y31	Z31	X32	Y32	Z32	X33	Y33	Z33	X34	Y34	Z34	X35	Y35	Z35	X36	Y36	Z36	X37	Y37	Z37	X38	Y38	Z38	X39	Y39	Z39	X40	Y40	Z40	X41	Y41	Z41	X42	Y42	Z42	X43	Y43	Z43	X44	Y44	Z44	X45	Y45	Z45	X46	Y46	Z46	X47	Y47	Z47	X48	Y48	Z48	X49	Y49	Z49	X50	Y50	Z50	X51	Y51	Z51	X52	Y52	Z52	
1250	6.2500	765.736535	1403.297446	-78.721966	761.601289	1427.754605	-391.073524	718.708383	1503.542309	-229.880653	695.421047	1329.354934	-236.408930	617.644727	1177.510459	51.043935	746.491373	948.538925	-45.661363	661.206529	1187.799025	-510.820287	755.380343	921.480697	-425.039148	158.482697	1295.696306	-233.414231	337.367411	1308.805131	-412.905137	324.518757	1298.000668	-45.086174	346.414941	1234.011879	-372.928066	343.724135	1223.827579	-92.591828	190.378332	1341.421366	-183.146081	198.090853	1343.822017	-265.622332	260.014413	1194.321944	-39.284583	271.179282	1207.655862	-437.296304	334.410273	1044.159492	-27.893955	399.908116	984.027708	-32.256124	428.806776	904.028220	-42.619581	429.846328	1004.352963	-40.691415	479.015588	787.071809	-75.827290	482.924464	773.609024	-192.757159	416.334360	631.615509	-48.396485	405.342979	544.100779	-62.519732	351.886539	473.754956	-64.029306	433.905024	535.709546	-87.276453	290.499895	357.432883	-80.084145	316.529263	362.427866	-166.254832	220.989660	322.318183	-114.075581	527.582395	261.439104	-118.958104	408.319137	270.410695	-46.200610	434.893462	280.015037	-160.909330	348.789634	1075.878149	-466.583379	410.326814	1014.984089	-476.151165	440.846599	1031.843827	-467.159716	432.690878	929.670888	-486.547274	497.702778	814.873862	-484.813634	501.347115	795.252661	-357.837913	351.048033	714.276606	-493.961048	304.276893	647.085975	-470.783840	222.972055	609.881366	-454.869537	328.542635	622.809779	-451.342559	124.188153	539.929449	-426.478587	0.000000	0.000000	-0.000000	61.410573	569.633194	-376.398090	197.182376	293.516562	-353.947155	140.763327	368.869890	-306.993621	121.241146	380.929065	-433.920899	-216.186599	944.652013	-233.411562	-11.814155	80.987560	-435.603660	-11.932182	80.994239	-35.364380	
1251	6.2550	768.078588	1399.450381	-80.816541	760.649268	1426.624639	-393.379376	719.501122	1501.269037	-230.785625	696.445916	1327.157975	-238.525950	619.028821	1175.795649	51.166670	746.460640	947.051248	-46.202166	661.069692	1185.883952	-512.242000	755.562318	920.795239	-425.204002	158.384825	1293.775691	-233.020696	337.734995	1306.833875	-411.733151	325.797880	1293.661529	-44.330783	346.627002	1232.321665	-371.784756	344.660072	1219.718429	-91.700319	191.026677	1338.683981	-181.453223	198.353436	1341.736017	-264.095909	259.672765	1190.239367	-38.769555	272.301590	1207.083594	-436.908527	331.200312	1039.009848	-28.077562	395.224790	977.346293	-32.739467	422.362302	897.013270	-43.673500	426.701196	997.267204	-40.000453	471.409747	779.934601	-76.864979	475.438558	767.078244	-193.425990	409.809359	623.786243	-48.587974	399.927564	536.038147	-62.251191	347.315742	465.013021	-63.513596	428.660348	527.896623	-86.929981	287.220750	347.891924	-79.485891	312.797047	352.992664	-165.405758	217.585852	313.655059	-113.068672	523.539131	249.503747	-119.486370	404.650803	259.768689	-45.855841	431.142156	269.666456	-160.682932	351.180293	1076.931615	-468.068070	414.021727	1017.497156	-477.930152	444.206650	1034.711817	-468.162349	438.183872	932.674185	-489.204169	503.401376	819.703627	-487.952621	510.834806	799.070383	-358.659855	354.717421	721.372411	-496.426980	306.765582	654.983086	-472.898888	224.849566	619.251298	-456.506188	330.752870	630.043045	-453.427572	124.944560	550.281153	-427.319453	0.000000	0.000000	-0.000000	61.582393	579.024589	-377.059207	202.737373	305.625811	-353.732631	144.910115	380.333568	-307.196976	124.852587	391.443116	-434.172174	-215.962061	944.700127	-233.223540	-11.760198	80.959275	-435.571346	-11.806313	80.742084	-34.832408	
1252	6.2600	770.238417	1395.889810	-83.198521	759.530984	1425.709184	-395.596199	720.133268	1499.279148	-231.800607	697.444578	1325.143441	-240.821447	620.805474	1174.292253	51.203519	746.634200	945.571418	-46.392242	660.726624	1184.059145	-513.689832	755.668803	920.519478	-425.145552	158.485899	1291.782945	-231.916987	338.033515	1304.904090	-410.498205	327.132169	1289.468152	-43.624713	346.801093	1230.610465	-370.387119	345.685143	1215.728235	-90.952459	191.789150	1335.813042	-179.964247	198.555063	1339.685800	-262.617584	259.421938	1186.215801	-38.264387	273.372120	1206.507502	-436.425221	328.032236	1033.671222	-28.330949	390.884963	970.990970	-33.132740	416.339309	890.148101	-44.516489	422.675478	990.378277	-39.959753	463.860689	772.959340	-77.790053	467.410582	760.491598	-194.030055	402.953265	616.124409	-48.482367	394.322067	528.110342	-62.092181	342.527025	456.496014	-63.033967	422.911282	520.267187	-87.104497	283.508942	338.776104	-78.925846	308.729536	343.814570	-164.595110	213.734033	305.370605	-112.102761	519.026500	238.083523	-119.597781	400.356795	249.579468	-45.581288	426.806030	259.601679	-160.373365	353.763794	1078.523614	-469.440392	417.666456	1020.656154	-480.038794	447.840485	1038.493706	-469.845337	443.748180	936.268353	-491.643256	508.994905	824.690512	-490.853316	517.084541	802.299316	-361.723065	358.766503	728.133118	-498.861146	309.772303	662.764460	-474.914547	227.301359	628.387964	-458.209001	333.253552	637.470260	-455.624872	126.251545	560.171674	-428.152053	0.000000	0.000000	-0.000000	62.088304	587.951386	-377.585152	208.894082	318.008859	-354.033217	149.106778	391.281799	-307.139496	129.097283	401.631377	-434.320075	-215.834303	944.685562	-233.211921	-11.706391	80.930838	-435.537838	-11.482470	80.361944	-34.825657	
1253	6.2650	772.403265	1392.805705	-85.357737	758.265760	1425.170182	-397.646039	721.065878	1498.074335	-232.742554	698.451207	1323.443840	-243.067337	623.055002	1173.028138	51.108424	746.933647	944.097823	-46.386892	660.138889	1182.518879	-515.357564	755.728255	920.387406	-424.942009	158.939614	1289.815615	-230.539798	338.214899	1303.085201	-409.424175	328.476473	1285.775949	-42.638237	346.885806	1229.054136	-369.331838	346.704794	1211.822239	-90.175026	192.750168	1333.350208	-178.792323	198.365218	1337.884177	-265.078905	259.299082	1182.086397	-38.012664	274.432892	1205.962329	-435.869427	324.983914	1028.802843	-28.461963	386.565199	964.863819	-33.396259	410.382011	883.588055	-45.324424	418.108178	983.488193	-40.399518	456.577747	765.978196	-78.785999	459.259356	753.678051	-194.419357	396.450042	608.573112	-48.730808	388.478489	520.577194	-62.185789	337.168657	448.480642	-62.724865	416.943731	512.818679	-87.419575	279.043424	330.365883	-78.719694	304.012826	335.087959	-163.770917	209.187310	298.398217	-110.859479	513.857137	227.135992	-119.632382	395.473706	239.780696	-45.389999	422.035150	249.959097	-159.952122	356.473477	1080.790066	-470.490165	421.589141	1024.263714	-481.318749	451.162936	1041.992077	-469.361977	449.188842	940.515302	-493.810945	514.479065	829.697036	-493.696909	521.308667	805.298255	-366.078841	363.279124	734.734174	-501.183300	313.231291	670.213133	-476.727669	230.217014	637.188601	-459.823069	336.302790	644.698884	-457.372886	128.102238	569.775345	-428.948776	0.000000	0.000000	-0.000000	63.217027	596.527302	-378.236339	215.614502	329.516006	-353.564264	154.438054	402.359899	-307.547821	133.995950	411.808500	-434.763050	-215.826059	944.645006	-233.266540	-11.682456	80.926283	-435.492531	-11.489805	80.339121	-34.814543	
1254	6.2700	774.255939	1390.401497	-88.027741	756.842359	1424.920807	-399.803357	721.476884	1496.788170	-233.978452	699.253016	1322.090369	-245.574858	625.626863	1171.988327	51.123149	747.326771	942.831293	-46.402374	659.231983	1181.185937	-516.968019	755.756109	920.451412	-424.801384	159.299575	1287.805444	-228.993237	338.155729	1301.421148	-408.292547	330.043663	1282.424042	-41.994158	346.939363	1227.676000	-368.027578	347.617384	1208.271379	-89.123136	194.978891	1329.958925	-179.456812	198.617576	1335.921814	-262.981515	259.355061	1178.308419	-37.475999	275.209750	1205.503543	-435.133387	322.025902	1024.274503	-28.464700	382.251744	959.095467	-33.570705	404.417626	877.422620	-45.910583	413.945726	977.202934	-40.388398	448.934422	759.465816	-79.391863	450.986260	746.767127	-194.668819	389.762228	601.508283	-49.010429	382.330942	513.227767	-62.422111	331.573936	440.871205	-62.615303	410.534360	505.721700	-87.882652	274.014385	322.465292	-78.844286	298.912753	326.907230	-163.050242	204.683194	290.624989	-111.311352	508.149303	216.402670	-119.714578	389.983496	230.343983	-45.201050	416.513741	240.611163	-159.705856	359.322704	1083.889336	-471.043188	425.503010	1028.641159	-482.279838	454.672220	1046.437176	-469.307087	454.374234	945.418507	-495.859790	519.887670	834.667941	-496.300666	524.719437	808.426115	-370.778447	368.080781	740.877837	-503.395210	317.129915	677.281900	-478.333008	233.634056	645.525948	-461.340656	339.755545	651.662710	-458.728198	130.507199	578.986982	-429.636637	0.000000	0.000000	-0.000000	64.599375	604.694032	-378.626865	222.925330	341.447871	-353.777885	159.965014	413.019568	-307.720545	139.333776	421.454611	-434.958015	-215.869990	944.603281	-233.271762	-11.670085	80.909028	-435.491201	-11.496916	80.316798	-34.801908	
